<?xml version="1.0" encoding="utf-8"?>
<!-- Generator: Adobe Illustrator 24.0.2, SVG Export Plug-In . SVG Version: 6.00 Build 0)  -->
<svg version="1.1" id="圖層_1" xmlns="http://www.w3.org/2000/svg" xmlns:xlink="http://www.w3.org/1999/xlink" x="0px" y="0px"
	 viewBox="0 0 578.3 544.7" style="enable-background:new 0 0 578.3 544.7;" xml:space="preserve">
<style type="text/css">
	.st0{fill:#FFFFFF;}
	.st1{fill:#6B6B6B;}
</style>
<path class="st0" d="M470.8,18.3H109.2c-48.5,0-87.9,39.4-87.9,87.9v204.7c0,48.4,39.3,87.7,87.6,87.9v128.7l185-128.7h176.9
	c48.5,0,87.9-39.4,87.9-87.9V106.2C558.7,57.7,519.3,18.3,470.8,18.3z"/>
<path class="st1" d="M470.8,18.3H109.2c-48.5,0-87.9,39.4-87.9,87.9v204.7c0,48.4,39.3,87.7,87.6,87.9v128.7l185-128.7h176.9
	c48.5,0,87.9-39.4,87.9-87.9V106.2C558.7,57.7,519.3,18.3,470.8,18.3z M536.6,317.9c0,29.6-24.1,54.7-53.7,54.7H282.3l-144.4,99.5
	v-99.5l-39.5-1c-29.6,0-53.7-24.1-53.7-53.7V100.2c0-29.6,24.1-57.7,53.7-57.7h384.6c29.6,0,53.7,28.1,53.7,57.7V317.9z"/>
<g>
	<path class="st1" d="M179.4,119.8h38.9l-18.5,71.5h94l18.5-71.5H351l-46.5,180.4h-38.9l21.2-82.5h-94l-21.2,82.5h-38.9L179.4,119.8
		z"/>
	<path class="st1" d="M384.6,166.1h37.4l-34.5,134.1h-37.4L384.6,166.1z M399.1,109.4h37.4l-8.1,31.7H391L399.1,109.4z"/>
</g>
</svg>
